<svg viewBox="0 0 79 79" xmlns="http://www.w3.org/2000/svg"><path d="M37.116 75.944S26.846 63.4 21.143 57.696C15.528 52.08 3.16 41.987 3.16 41.987a3.274 3.274 0 0 1 0-4.63S15.626 27.165 21.29 21.5c5.655-5.655 15.826-18.1 15.826-18.1a3.275 3.275 0 0 1 4.631 0s10.226 12.501 15.908 18.183c5.637 5.637 18.048 15.773 18.048 15.773a3.274 3.274 0 0 1 0 4.63S63.326 52.09 57.706 57.71c-5.699 5.699-15.959 18.234-15.959 18.234a3.277 3.277 0 0 1-4.631 0z" stroke="#0C6F89" stroke-width="4" fill="#13B0F5"/><path d="M59.077 57.134a2.183 2.183 0 0 1-2.183 2.183H21.97a2.183 2.183 0 0 1-2.183-2.183V22.21c0-1.205.978-2.183 2.183-2.183h34.925c1.205 0 2.183.978 2.183 2.183v34.925z" fill="#FFF" opacity=".2"/><path d="M23.481 40.959a1.821 1.821 0 0 1 0-2.573l14.664-14.663a1.817 1.817 0 0 1 2.571 0l14.665 14.663c.71.71.71 1.862 0 2.573L40.717 55.62a1.82 1.82 0 0 1-2.572 0L23.481 40.96z" fill="#64EBFF" opacity=".5"/><path d="M13.32 41.473a2.548 2.548 0 0 1 0-3.602l24.31-24.31a2.545 2.545 0 0 1 3.602 0l24.31 24.31a2.548 2.548 0 0 1 0 3.602l-24.31 24.31a2.547 2.547 0 0 1-3.6 0L13.32 41.473z" fill="#64EBFF" opacity=".2"/><path d="M22.347 26.845a1.09 1.09 0 0 1-1.543 0l-5.016-5.016a1.092 1.092 0 0 1 0-1.544l5.016-5.016a1.09 1.09 0 0 1 1.543 0l5.016 5.016a1.092 1.092 0 0 1 0 1.544l-5.016 5.016zm-1.031 36.197a1.091 1.091 0 0 1-1.544 0l-5.016-5.016a1.091 1.091 0 0 1 0-1.543l5.016-5.016a1.091 1.091 0 0 1 1.544 0l5.016 5.016a1.092 1.092 0 0 1 0 1.543l-5.016 5.016zm37.333.106a1.09 1.09 0 0 1-1.543 0l-5.017-5.017a1.09 1.09 0 0 1 0-1.543l5.017-5.016a1.09 1.09 0 0 1 1.543 0l5.016 5.016a1.09 1.09 0 0 1 0 1.543l-5.016 5.017zm-.209-35.166a1.091 1.091 0 0 1-1.544 0l-5.015-5.017a1.091 1.091 0 0 1 0-1.543l5.015-5.017a1.091 1.091 0 0 1 1.544 0l5.016 5.017a1.091 1.091 0 0 1 0 1.543l-5.016 5.017z" fill="#0C6F89"/><path d="M28.926 51.814a1.638 1.638 0 0 1-1.637-1.638v-21.01c0-.903.733-1.637 1.637-1.637h21.01c.905 0 1.638.734 1.638 1.638v21.01a1.64 1.64 0 0 1-1.638 1.638h-21.01v-.001z" fill="#FFF" opacity=".2"/><path d="M35.234 35.474s2.122 4.247 0 8.492c0 0 4.245-2.122 8.491 0 0 0-2.123-4.245 0-8.492 0 0-4.246 2.124-8.491 0z" fill="#FFF"/></svg>